<?xml version="1.0" encoding="UTF-8" standalone="no"?>
<!DOCTYPE svg PUBLIC "-//W3C//DTD SVG 1.1//EN"
 "http://www.w3.org/Graphics/SVG/1.1/DTD/svg11.dtd">
<!-- Generated by graphviz version 2.38.0 (20140413.2041)
 -->
<!-- Title: unix Pages: 1 -->
<svg xmlns="http://www.w3.org/2000/svg" xmlns:xlink="http://www.w3.org/1999/xlink" style="width:101;height:66;" width="101pt" height="66pt" viewBox="0 0 101 66">
<g id="graph0" class="graph" transform="scale(1 1) rotate(0) translate(4 62)">
<title>unix</title>
<polygon fill="#ffffff" stroke="none" points="-4,4 -4,-62 97,-62 97,4 -4,4"/>
<!-- cl2 -->
<g id="node1" class="node"><title>cl2</title>
<polygon fill="#fefece" stroke="#a80036" points="93,-58 0,-58 0,-0 93,-0 93,-58"/>
<polygon fill="#fefece" stroke="none" points="0,-0 0,-58 93,-58 93,-0 0,-0"/>
<polygon fill="none" stroke="#a80036" points="0.5,-31 0.5,-58 93.5,-58 93.5,-31 0.5,-31"/>
<svg x="5.5" y="-53.0"><g transform="translate(0 0) scale(0.7391 0.7391)"><ellipse cx="11.0" cy="11.0" fill="#B4A7E5" rx="11.0" ry="11.0" style="stroke: #A80036; stroke-width: 1.0;"/><path d="M11.9531,7.6406 L11.9531,14.2969 L13.6719,14.2969 Q14.2813,14.2969 14.5469,14.5313 Q14.8125,14.7656 14.8125,15.1563 Q14.8125,15.5313 14.5469,15.7656 Q14.2813,16 13.6719,16 L8.5313,16 Q7.9219,16 7.6563,15.7656 Q7.3906,15.5313 7.3906,15.1406 Q7.3906,14.7656 7.6563,14.5313 Q7.9219,14.2969 8.5313,14.2969 L10.25,14.2969 L10.25,7.6406 L8.5313,7.6406 Q7.9219,7.6406 7.6563,7.4063 Q7.3906,7.1719 7.3906,6.7813 Q7.3906,6.4063 7.6563,6.1719 Q7.9219,5.9375 8.5313,5.9375 L13.6719,5.9375 Q14.2813,5.9375 14.5469,6.1719 Q14.8125,6.4063 14.8125,6.7813 Q14.8125,7.1719 14.5469,7.4063 Q14.2813,7.6406 13.6719,7.6406 L11.9531,7.6406 Z "/></g></svg>
<text text-anchor="start" x="25.5" y="-41.4" font-family="italic" font-size="12.00" fill="#000000">Component</text>
<polygon fill="none" stroke="#a80036" points="0.5,-10 0.5,-31 93.5,-31 93.5,-10 0.5,-10"/>
<text text-anchor="start" x="5.5" y="-18" font-family="Times New Roman,serif" font-size="10.00" fill="#000000">love</text>
<polygon fill="none" stroke="#a80036" points="0.5,-0 0.5,-10 93.5,-10 93.5,-0 0.5,-0"/>
</g>
</g>
</svg>
