<?xml version="1.0" encoding="UTF-8" standalone="no"?>
<!DOCTYPE svg PUBLIC "-//W3C//DTD SVG 1.1//EN"
 "http://www.w3.org/Graphics/SVG/1.1/DTD/svg11.dtd">
<!-- Generated by graphviz version 2.38.0 (20140413.2041)
 -->
<!-- Title: unix Pages: 1 -->
<svg xmlns="http://www.w3.org/2000/svg" xmlns:xlink="http://www.w3.org/1999/xlink" style="width:115;height:83;" width="115pt" height="83pt" viewBox="0 0 115 83">
<g id="graph0" class="graph" transform="scale(1 1) rotate(0) translate(4 79)">
<title>unix</title>
<polygon fill="#ffffff" stroke="none" points="-4,4 -4,-79 111,-79 111,4 -4,4"/>
<!-- cl10 -->
<g id="node1" class="node"><title>cl10</title>
<polygon fill="#fefece" stroke="#a80036" points="107,-75 0,-75 0,-0 107,-0 107,-75"/>
<polygon fill="#fefece" stroke="none" points="0,-0 0,-75 107,-75 107,-0 0,-0"/>
<polygon fill="none" stroke="#a80036" points="0.5,-41.5 0.5,-74.5 107.5,-74.5 107.5,-41.5 0.5,-41.5"/>
<svg x="17.0" y="-69.5"><g transform="translate(0 0) scale(1 1)"><ellipse cx="11.0" cy="11.0" fill="#ADD1B2" rx="11.0" ry="11.0" style="stroke: #A80036; stroke-width: 1.0;"/><path d="M13.7656,6.875 Q13.9219,6.6563 14.1094,6.5469 Q14.2969,6.4375 14.5156,6.4375 Q14.8906,6.4375 15.125,6.6953 Q15.3594,6.9531 15.3594,7.5625 L15.3594,9.0156 Q15.3594,9.625 15.125,9.8906 Q14.8906,10.1563 14.5156,10.1563 Q14.1719,10.1563 13.9688,9.9531 Q13.7656,9.7656 13.6563,9.25 Q13.6094,8.8906 13.4219,8.7031 Q13.0938,8.3281 12.4844,8.1094 Q11.875,7.8906 11.25,7.8906 Q10.4844,7.8906 9.8516,8.2188 Q9.2188,8.5469 8.7266,9.2969 Q8.2344,10.0469 8.2344,11.0781 L8.2344,12.1719 Q8.2344,13.4063 9.125,14.2266 Q10.0156,15.0469 11.6094,15.0469 Q12.5469,15.0469 13.2031,14.7969 Q13.5938,14.6406 14.0156,14.2031 Q14.2813,13.9375 14.4297,13.8594 Q14.5781,13.7813 14.7813,13.7813 Q15.1094,13.7813 15.3672,14.0391 Q15.625,14.2969 15.625,14.6406 Q15.625,14.9844 15.2813,15.3906 Q14.7813,15.9688 13.9844,16.2969 Q12.9063,16.75 11.6094,16.75 Q10.0938,16.75 8.8906,16.125 Q7.9063,15.625 7.2188,14.5547 Q6.5313,13.4844 6.5313,12.2031 L6.5313,11.0469 Q6.5313,9.7188 7.1484,8.5703 Q7.7656,7.4219 8.8594,6.8047 Q9.9531,6.1875 11.1875,6.1875 Q11.9219,6.1875 12.5703,6.3516 Q13.2188,6.5156 13.7656,6.875 Z "/></g></svg>
<text text-anchor="start" x="45" y="-54.9" font-family="Times New Roman,serif" font-size="12.00" fill="#000000">Decorator</text>
<polygon fill="none" stroke="#a80036" points="0.5,-9.5 0.5,-41.5 107.5,-41.5 107.5,-9.5 0.5,-9.5"/>
<text text-anchor="start" x="5.5" y="-28.5" font-family="Times New Roman,serif" font-size="10.00" fill="#000000">&#45;component:Component</text>
<text text-anchor="start" x="5.5" y="-17.5" font-family="Times New Roman,serif" font-size="10.00" fill="#000000">love</text>
<polygon fill="none" stroke="#a80036" points="0.5,0.5 0.5,-9.5 107.5,-9.5 107.5,0.5 0.5,0.5"/>
</g>
</g>
</svg>
